# xmcd CD database file
#
# Track frame offsets:
#	183
#	15508
#	26895
#	39458
#	59958
#	73070
#	92820
#	107808
#	119395
#	130220
#	140808
#	153445
#	167658
#	181720
#	194145
#	206945
#
# Disc length: 2930 seconds
#
# Revision: 4
# Processed by: cddbd v1.5.2PL0 Copyright (c) Steve Scherf et al.
# Submitted via: CDex 1.51
#
DISCID=f70b7010
DTITLE=Various Artist - Country Romancin'
DYEAR=1990
DGENRE=Country
TTITLE0=Love In The Hot Afternoon - Gene Watson
TTITLE1=It's A Cheatin' Situation - Moe Bandy
TTITLE2=In A New York Minute - Ronnie McDowell
TTITLE3=Momma You Can't Give Me No Whippin' - Gary Morris
TTITLE4=In The Middle Of The Night - Mel Tillis
TTITLE5=If I Said You Had A Beautiful Body (Would You Hold It Against Me) - Bellamy Brothers
TTITLE6=What We Gonna Do ('bout What We Did Last Night) - Gus Hardin
TTITLE7=You're Out Doin' (What I'm Here Doin' Without) - Gene Watson
TTITLE8=It'll Be Love By Morning - David Frizzell
TTITLE9=The Danger Of A Stranger - Stella Parton
TTITLE10=Cheap Perfume And Candlelight - Bobby Borchers
TTITLE11=Rockin' In The Parking Lot - Razzy Bailey
TTITLE12=Who Do You Know In California - Eddy Raven
TTITLE13=Ruby, Don't Take Your Love To Town - Mel Tillis
TTITLE14=Older Women - Ronnie McDowell
TTITLE15=Red Neckin' Love Makin' Night - H. McMillan
EXTD=YEAR: 1990
EXTT0=
EXTT1=
EXTT2=
EXTT3=
EXTT4=
EXTT5=
EXTT6=
EXTT7=
EXTT8=
EXTT9=
EXTT10=
EXTT11=
EXTT12=
EXTT13=
EXTT14=
EXTT15=
PLAYORDER=
